<mxfile host="app.diagrams.net" agent="Mozilla/5.0 (Windows NT 10.0; Win64; x64) AppleWebKit/537.36 (KHTML, like Gecko) Chrome/130.0.0.0 Safari/537.36 Edg/130.0.0.0" version="24.8.2">
  <diagram name="Page-1" id="hw6-r8m-JXMxvwliNezB">
    <mxGraphModel dx="1213" dy="768" grid="1" gridSize="10" guides="1" tooltips="1" connect="1" arrows="1" fold="1" page="1" pageScale="1" pageWidth="850" pageHeight="1100" math="0" shadow="0">
      <root>
        <mxCell id="0" />
        <mxCell id="1" parent="0" />
        <mxCell id="N7DXy6AxGKkTGvR6XEeT-3" value="" style="edgeStyle=orthogonalEdgeStyle;rounded=0;orthogonalLoop=1;jettySize=auto;html=1;" edge="1" parent="1" source="N7DXy6AxGKkTGvR6XEeT-1" target="N7DXy6AxGKkTGvR6XEeT-2">
          <mxGeometry relative="1" as="geometry" />
        </mxCell>
        <mxCell id="N7DXy6AxGKkTGvR6XEeT-5" value="" style="edgeStyle=orthogonalEdgeStyle;rounded=0;orthogonalLoop=1;jettySize=auto;html=1;" edge="1" parent="1" source="N7DXy6AxGKkTGvR6XEeT-1" target="N7DXy6AxGKkTGvR6XEeT-4">
          <mxGeometry relative="1" as="geometry" />
        </mxCell>
        <mxCell id="N7DXy6AxGKkTGvR6XEeT-1" value="Input difficulty" style="text;html=1;align=center;verticalAlign=middle;resizable=0;points=[];autosize=1;strokeColor=none;fillColor=none;" vertex="1" parent="1">
          <mxGeometry x="310" y="88" width="100" height="30" as="geometry" />
        </mxCell>
        <mxCell id="N7DXy6AxGKkTGvR6XEeT-2" value="Input Number" style="whiteSpace=wrap;html=1;" vertex="1" parent="1">
          <mxGeometry x="300" y="183" width="120" height="60" as="geometry" />
        </mxCell>
        <mxCell id="N7DXy6AxGKkTGvR6XEeT-4" value="Function Easy&lt;div&gt;Function Hard&lt;/div&gt;" style="whiteSpace=wrap;html=1;" vertex="1" parent="1">
          <mxGeometry x="480" y="73" width="120" height="60" as="geometry" />
        </mxCell>
      </root>
    </mxGraphModel>
  </diagram>
</mxfile>
